  0
SECTION
  2
HEADER
  9
$ACADVER
  1
AC1003
  9
$EXTMIN
 10
0.505786862637338
 20
1.64875454923409
  9
$EXTMAX
 10
9.13033007779955
 20
0.448754549094797
  9
$INSUNITS
 70
1
  9
$INSBASE
 10
4.81805847021845
 20
1.04875454916444
999
Created with OMAX LAYOUT for Windows. (www.omax.com) 3/28/2019
  0
ENDSEC
  0
SECTION
  2
TABLES
  0
TABLE
  2
LAYER
 70
    10
  0
LAYER
  2
0
 70
     0
 62
     7
  6
CONTINUOUS
  0
LAYER
  2
1
 70
     0
 62
     7
  6
CONTINUOUS
  0
LAYER
  2
2
 70
     0
 62
     7
  6
CONTINUOUS
  0
LAYER
  2
3
 70
     0
 62
     7
  6
CONTINUOUS
  0
LAYER
  2
4
 70
     0
 62
     7
  6
CONTINUOUS
  0
LAYER
  2
5
 70
     0
 62
     7
  6
CONTINUOUS
  0
LAYER
  2
6
 70
     0
 62
     7
  6
CONTINUOUS
  0
LAYER
  2
7
 70
     0
 62
     7
  6
CONTINUOUS
  0
LAYER
  2
8
 70
     0
 62
     7
  6
CONTINUOUS
  0
LAYER
  2
9
 70
     0
 62
     7
  6
CONTINUOUS
  0
LAYER
  2
10
 70
     0
 62
     7
  6
CONTINUOUS
  0
LAYER
  2
11
 70
     0
 62
     7
  6
CONTINUOUS
  0
LAYER
  2
12
 70
     0
 62
     7
  6
CONTINUOUS
  0
LAYER
  2
13
 70
     0
 62
     7
  6
CONTINUOUS
  0
LAYER
  2
14
 70
     0
 62
     7
  6
CONTINUOUS
  0
LAYER
  2
15
 70
     0
 62
     7
  6
CONTINUOUS
  0
LAYER
  2
16
 70
     0
 62
     7
  6
CONTINUOUS
  0
LAYER
  2
17
 70
     0
 62
     7
  6
CONTINUOUS
  0
LAYER
  2
18
 70
     0
 62
     7
  6
CONTINUOUS
  0
LAYER
  2
19
 70
     0
 62
     7
  6
CONTINUOUS
  0
LAYER
  2
20
 70
     0
 62
     7
  6
CONTINUOUS
  0
LAYER
  2
21
 70
     0
 62
     7
  6
CONTINUOUS
  0
LAYER
  2
22
 70
     0
 62
     7
  6
CONTINUOUS
  0
LAYER
  2
23
 70
     0
 62
     7
  6
CONTINUOUS
  0
LAYER
  2
24
 70
     0
 62
     7
  6
CONTINUOUS
  0
LAYER
  2
25
 70
     0
 62
     7
  6
CONTINUOUS
  0
LAYER
  2
26
 70
     0
 62
     7
  6
CONTINUOUS
  0
LAYER
  2
27
 70
     0
 62
     7
  6
CONTINUOUS
  0
LAYER
  2
28
 70
     0
 62
     7
  6
CONTINUOUS
  0
LAYER
  2
29
 70
     0
 62
     7
  6
CONTINUOUS
  0
LAYER
  2
30
 70
     0
 62
     7
  6
CONTINUOUS
  0
LAYER
  2
31
 70
     0
 62
     7
  6
CONTINUOUS
  0
ENDTAB
  0
ENDSEC
  0
SECTION
  2
ENTITIES
  0
LINE
  8
0
  6
CONTINUOUS
 62
0
 10
0.630482368919816
 20
0.448754549094797
 30
0.0
 11
0.878981952228691
 21
0.693245223118823
 31
0.0
  0
LINE
  8
0
  6
CONTINUOUS
 62
0
 10
0.958214585648606
 20
0.680143363275051
 30
0.0
 11
1.8789819524787
 21
0.693245223118818
 31
0.0
  0
LINE
  8
0
  6
CONTINUOUS
 62
0
 10
1.95821458589861
 20
0.680143363275044
 30
0.0
 11
8.88167820124539
 21
0.704263875224337
 31
0.0
  0
LINE
  8
0
  6
CONTINUOUS
 62
0
 10
8.80244556782546
 20
0.717365735068105
 30
0.0
 11
7.88167820099539
 21
0.704263875224321
 31
0.0
  0
LINE
  8
0
  6
CONTINUOUS
 62
0
 10
7.80244556757548
 20
0.717365735068096
 30
0.0
 11
4.88075738738107
 21
0.652012922204642
 31
0.0
  0
LINE
  8
0
  6
CONTINUOUS
 62
0
 10
4.87996712040786
 20
0.654962238700195
 30
0.0
 11
4.88075738738107
 21
0.868548355329642
 31
0.0
  0
LINE
  8
0
  6
CONTINUOUS
 62
0
 10
4.87996712040786
 20
0.871497671825195
 30
0.0
 11
4.87378716863225
 21
1.09861178247135
 31
0.0
  0
LINE
  8
0
  6
CONTINUOUS
 62
0
 10
4.88251104610532
 20
0.998706960313163
 30
0.0
 11
4.87880339817887
 21
1.46998107948943
 31
0.0
  0
LINE
  8
0
  6
CONTINUOUS
 62
0
 10
4.8818567552952
 20
1.46998107948943
 30
0.0
 11
8.88167820124539
 21
1.30426387522434
 31
0.0
  0
LINE
  8
0
  6
CONTINUOUS
 62
0
 10
8.80244556782546
 20
1.31736573506811
 30
0.0
 11
7.88167820099539
 21
1.30426387522432
 31
0.0
  0
LINE
  8
0
  6
CONTINUOUS
 62
0
 10
7.80244556757548
 20
1.3173657350681
 30
0.0
 11
4.8818567552952
 21
1.25351227085371
 31
0.0
  0
LINE
  8
0
  6
CONTINUOUS
 62
0
 10
4.87880339817887
 20
1.25351227085371
 30
0.0
 11
0.878981952228691
 21
1.29324522311882
 31
0.0
  0
LINE
  8
0
  6
CONTINUOUS
 62
0
 10
0.958214585648606
 20
1.28014336327505
 30
0.0
 11
1.8789819524787
 21
1.29324522311882
 31
0.0
  0
LINE
  8
0
  6
CONTINUOUS
 62
0
 10
1.95821458589861
 20
1.28014336327504
 30
0.0
 11
4.13499982699376
 21
1.00174172725638
 31
0.0
  0
LINE
  8
0
  6
CONTINUOUS
 62
0
 10
4.09624243061301
 20
1.0942346661999
 30
0.0
 11
4.09624243061301
 21
0.916754549109079
 31
0.0
  0
LINE
  8
0
  6
CONTINUOUS
 62
0
 10
4.09624243061301
 20
0.916754549109079
 30
0.0
 11
0.880330075737045
 21
0.923754549109079
 31
0.0
  0
LINE
  8
0
  6
CONTINUOUS
 62
0
 10
0.880330075737045
 20
0.923754549109079
 30
0.0
 11
0.815286095111155
 21
0.92990241200596
 31
0.0
  0
LINE
  8
0
  6
CONTINUOUS
 62
0
 10
0.815286095111155
 20
0.92990241200596
 30
0.0
 11
0.740018790645807
 21
0.951486120166939
 31
0.0
  0
LINE
  8
0
  6
CONTINUOUS
 62
0
 10
0.740018790645807
 20
0.951486120166939
 30
0.0
 11
0.670883762627194
 21
0.988247125054224
 31
0.0
  0
LINE
  8
0
  6
CONTINUOUS
 62
0
 10
0.670883762627194
 20
0.988247125054224
 30
0.0
 11
0.610902543526398
 21
1.03857879435537
 31
0.0
  0
LINE
  8
0
  6
CONTINUOUS
 62
0
 10
0.610902543526398
 20
1.03857879435537
 30
0.0
 11
0.562696600439946
 21
1.10028139260377
 31
0.0
  0
LINE
  8
0
  6
CONTINUOUS
 62
0
 10
0.562696600439946
 20
1.10028139260377
 30
0.0
 11
0.528372764398497
 21
1.17065822017405
 31
0.0
  0
LINE
  8
0
  6
CONTINUOUS
 62
0
 10
0.528372764398497
 20
1.17065822017405
 30
0.0
 11
0.51284117163795
 21
1.22510226779403
 31
0.0
  0
LINE
  8
0
  6
CONTINUOUS
 62
0
 10
0.51284117163795
 20
1.22510226779403
 30
0.0
 11
0.505786862637338
 21
1.29875986413137
 31
0.0
  0
LINE
  8
0
  6
CONTINUOUS
 62
0
 10
0.505786862637338
 20
1.29875986413137
 30
0.0
 11
0.513972635514713
 21
1.37663166070662
 31
0.0
  0
LINE
  8
0
  6
CONTINUOUS
 62
0
 10
0.513972635514713
 20
1.37663166070662
 30
0.0
 11
0.538169986507846
 21
1.45109985381195
 31
0.0
  0
LINE
  8
0
  6
CONTINUOUS
 62
0
 10
0.538169986507846
 20
1.45109985381195
 30
0.0
 11
0.630482368919816
 21
1.64875454923409
 31
0.0
  0
ARC
  8
4
  6
CONTINUOUS
 62
4
 10
0.880330075742874
 20
0.698754549176052
 30
0.0
 40
0.130000000028029
 50
344.999999997431
 51
90.0000000025729
  0
ARC
  8
4
  6
CONTINUOUS
 62
4
 10
0.88033007573704
 20
0.698754549171575
 30
0.0
 40
0.130000000032505
 50
90.000000000002
 51
180.000000000002
  0
ARC
  8
4
  6
CONTINUOUS
 62
4
 10
0.880330075736271
 20
0.698754549165734
 30
0.0
 40
0.130000000031736
 50
179.999999997428
 51
345.000000002575
  0
ARC
  8
4
  6
CONTINUOUS
 62
4
 10
1.88033007607571
 20
0.698754549159898
 30
0.0
 40
0.129999999943831
 50
344.999999994854
 51
5.14458695420076E-9
  0
ARC
  8
4
  6
CONTINUOUS
 62
4
 10
1.88033007598705
 20
0.698754549171571
 30
0.0
 40
0.1300000000325
 50
359.999999999999
 51
180
  0
ARC
  8
4
  6
CONTINUOUS
 62
4
 10
1.88033007598628
 20
0.698754549165732
 30
0.0
 40
0.130000000031731
 50
179.999999997427
 51
345.000000002572
  0
ARC
  8
4
  6
CONTINUOUS
 62
4
 10
8.88033007769276
 20
0.698754549177417
 30
0.0
 40
0.129999999988237
 50
164.999999997439
 51
180.000000002577
  0
ARC
  8
4
  6
CONTINUOUS
 62
4
 10
8.88033007773704
 20
0.698754549171584
 30
0.0
 40
0.130000000032514
 50
180.000000000006
 51
6.46288711273387E-12
  0
ARC
  8
4
  6
CONTINUOUS
 62
4
 10
8.88033007773858
 20
0.698754549183267
 30
0.0
 40
0.130000000030977
 50
359.999999994858
 51
165.000000005155
  0
ARC
  8
4
  6
CONTINUOUS
 62
4
 10
7.88033007744271
 20
0.698754549177406
 30
0.0
 40
0.129999999988166
 50
164.999999997427
 51
180.000000002572
  0
ARC
  8
4
  6
CONTINUOUS
 62
4
 10
7.88033007748704
 20
0.698754549171568
 30
0.0
 40
0.1300000000325
 50
179.999999999999
 51
359.999999999999
  0
ARC
  8
4
  6
CONTINUOUS
 62
4
 10
7.88033007748858
 20
0.698754549183245
 30
0.0
 40
0.130000000030963
 50
359.999999994854
 51
165.000000005145
  0
ARC
  8
4
  6
CONTINUOUS
 62
4
 10
4.88033007673683
 20
0.653478958610646
 30
0.0
 40
0.0350000000085327
 50
14.9999999974022
 51
180.000000002564
  0
ARC
  8
4
  6
CONTINUOUS
 62
4
 10
4.88033007673704
 20
0.653478958609069
 30
0.0
 40
0.0350000000087403
 50
179.999999999983
 51
359.999999999983
  0
ARC
  8
4
  6
CONTINUOUS
 62
4
 10
4.88033007676087
 20
0.653478958612208
 30
0.0
 40
0.0349999999849062
 50
359.999999994846
 51
15.0000000051195
  0
ARC
  8
4
  6
CONTINUOUS
 62
4
 10
4.88033007673683
 20
0.870014391735646
 30
0.0
 40
0.0350000000085328
 50
14.9999999974033
 51
180.000000002564
  0
ARC
  8
4
  6
CONTINUOUS
 62
4
 10
4.88033007673704
 20
0.870014391734069
 30
0.0
 40
0.0350000000087403
 50
179.999999999983
 51
359.999999999983
  0
ARC
  8
4
  6
CONTINUOUS
 62
4
 10
4.88033007676087
 20
0.870014391737208
 30
0.0
 40
0.0349999999849047
 50
359.999999994846
 51
15.0000000051198
  0
LINE
  8
4
  6
CONTINUOUS
 62
4
 10
4.88033007673705
 20
0.94875454923407
 30
0.0
 11
8.88033007773705
 21
0.94875454923407
 31
0.0
  0
ARC
  8
4
  6
CONTINUOUS
 62
4
 10
8.88033007773705
 20
0.698754549171584
 30
0.0
 40
0.250000000062505
 50
270.000000000002
 51
89.9999999999985
  0
LINE
  8
4
  6
CONTINUOUS
 62
4
 10
8.88033007773705
 20
0.448754549109079
 30
0.0
 11
5.86458204548704
 21
0.448754549109079
 31
0.0
  0
ARC
  8
4
  6
CONTINUOUS
 62
4
 10
5.47088125798702
 20
-0.103410805359678
 30
0.0
 40
0.678149606468769
 50
54.5106567498982
 51
89.9999999999995
  0
LINE
  8
4
  6
CONTINUOUS
 62
4
 10
5.47088125798702
 20
0.57473880110908
 30
0.0
 11
4.28977889548704
 21
0.57473880110908
 31
0.0
  0
ARC
  8
4
  6
CONTINUOUS
 62
4
 10
4.28977889548706
 20
-0.1034108053597
 30
0.0
 40
0.67814960646879
 50
90.0000000000009
 51
125.489343250098
  0
LINE
  8
4
  6
CONTINUOUS
 62
4
 10
3.89607810798705
 20
0.448754549109079
 30
0.0
 11
0.880330075737045
 21
0.448754549109079
 31
0.0
  0
ARC
  8
4
  6
CONTINUOUS
 62
4
 10
0.880330075737047
 20
0.698754549171575
 30
0.0
 40
0.250000000062495
 50
90.0000000000005
 51
269.999999999999
  0
LINE
  8
4
  6
CONTINUOUS
 62
4
 10
0.880330075737045
 20
0.94875454923407
 30
0.0
 11
4.88033007673705
 21
0.94875454923407
 31
0.0
  0
ARC
  8
4
  6
CONTINUOUS
 62
4
 10
4.88033007673939
 20
1.47001439173171
 30
0.0
 40
0.0350000000063831
 50
269.999999996125
 51
3.84324233267453E-9
  0
ARC
  8
4
  6
CONTINUOUS
 62
4
 10
4.88033007673704
 20
1.47001439173407
 30
0.0
 40
0.0350000000087403
 50
359.999999999983
 51
179.999999999984
  0
ARC
  8
4
  6
CONTINUOUS
 62
4
 10
4.88033007673468
 20
1.47001439173171
 30
0.0
 40
0.0350000000063836
 50
179.999999996125
 51
270.000000003842
  0
ARC
  8
4
  6
CONTINUOUS
 62
4
 10
8.88033007769276
 20
1.29875454917742
 30
0.0
 40
0.129999999988237
 50
164.999999997439
 51
180.000000002577
  0
ARC
  8
4
  6
CONTINUOUS
 62
4
 10
8.88033007773704
 20
1.29875454917158
 30
0.0
 40
0.130000000032514
 50
180.000000000006
 51
6.46288711273387E-12
  0
ARC
  8
4
  6
CONTINUOUS
 62
4
 10
8.88033007773858
 20
1.29875454918327
 30
0.0
 40
0.130000000030977
 50
359.999999994858
 51
165.000000005155
  0
ARC
  8
4
  6
CONTINUOUS
 62
4
 10
7.88033007744271
 20
1.29875454917741
 30
0.0
 40
0.129999999988166
 50
164.999999997427
 51
180.000000002572
  0
ARC
  8
4
  6
CONTINUOUS
 62
4
 10
7.88033007748704
 20
1.29875454917157
 30
0.0
 40
0.1300000000325
 50
179.999999999999
 51
359.999999999999
  0
ARC
  8
4
  6
CONTINUOUS
 62
4
 10
7.88033007748858
 20
1.29875454918324
 30
0.0
 40
0.130000000030963
 50
359.999999994854
 51
165.000000005145
  0
ARC
  8
4
  6
CONTINUOUS
 62
4
 10
4.88033007673468
 20
1.25347895861143
 30
0.0
 40
0.0350000000063829
 50
89.999999996124
 51
180.000000003841
  0
ARC
  8
4
  6
CONTINUOUS
 62
4
 10
4.88033007673704
 20
1.25347895860907
 30
0.0
 40
0.0350000000087403
 50
179.999999999983
 51
359.999999999983
  0
ARC
  8
4
  6
CONTINUOUS
 62
4
 10
4.88033007673939
 20
1.25347895861143
 30
0.0
 40
0.0350000000063829
 50
359.999999996124
 51
90.0000000038421
  0
ARC
  8
4
  6
CONTINUOUS
 62
4
 10
0.880330075742874
 20
1.29875454917605
 30
0.0
 40
0.130000000028029
 50
344.999999997431
 51
90.0000000025729
  0
ARC
  8
4
  6
CONTINUOUS
 62
4
 10
0.88033007573704
 20
1.29875454917157
 30
0.0
 40
0.130000000032505
 50
90.000000000002
 51
180.000000000002
  0
ARC
  8
4
  6
CONTINUOUS
 62
4
 10
0.880330075736271
 20
1.29875454916573
 30
0.0
 40
0.130000000031736
 50
179.999999997428
 51
345.000000002575
  0
ARC
  8
4
  6
CONTINUOUS
 62
4
 10
1.88033007607571
 20
1.2987545491599
 30
0.0
 40
0.129999999943831
 50
344.999999994854
 51
5.14463625279832E-9
  0
ARC
  8
4
  6
CONTINUOUS
 62
4
 10
1.88033007598705
 20
1.29875454917157
 30
0.0
 40
0.1300000000325
 50
359.999999999999
 51
180
  0
ARC
  8
4
  6
CONTINUOUS
 62
4
 10
1.88033007598628
 20
1.29875454916573
 30
0.0
 40
0.130000000031731
 50
179.999999997427
 51
345.000000002572
  0
ARC
  8
4
  6
CONTINUOUS
 62
4
 10
4.28977889528655
 20
0.496589194976445
 30
0.0
 40
0.67814960607869
 50
107.744671617455
 51
125.489343252793
  0
LINE
  8
4
  6
CONTINUOUS
 62
4
 10
3.89607810798705
 20
1.04875454910908
 30
0.0
 11
0.880330075737045
 21
1.04875454910908
 31
0.0
  0
ARC
  8
4
  6
CONTINUOUS
 62
4
 10
0.880330075737047
 20
1.29875454917157
 30
0.0
 40
0.250000000062495
 50
90.0000000000005
 51
269.999999999999
  0
LINE
  8
4
  6
CONTINUOUS
 62
4
 10
0.880330075737045
 20
1.54875454923407
 30
0.0
 11
8.88033007773705
 21
1.54875454923407
 31
0.0
  0
ARC
  8
4
  6
CONTINUOUS
 62
4
 10
8.88033007773705
 20
1.29875454917158
 30
0.0
 40
0.250000000062505
 50
270.000000000002
 51
89.9999999999985
  0
LINE
  8
4
  6
CONTINUOUS
 62
4
 10
8.88033007773705
 20
1.04875454910908
 30
0.0
 11
5.86458204548704
 21
1.04875454910908
 31
0.0
  0
ARC
  8
4
  6
CONTINUOUS
 62
4
 10
5.47088125798702
 20
0.496589194640322
 30
0.0
 40
0.678149606468769
 50
54.5106567498982
 51
89.9999999999995
  0
LINE
  8
4
  6
CONTINUOUS
 62
4
 10
5.47088125798702
 20
1.17473880110908
 30
0.0
 11
4.28977889548704
 21
1.17473880110908
 31
0.0
  0
ARC
  8
4
  6
CONTINUOUS
 62
4
 10
4.28977889542474
 20
0.49658919522527
 30
0.0
 40
0.678149605883819
 50
89.9999999947359
 51
107.744671634981
  0
LINE
  8
9
  6
CONTINUOUS
 62
9
 10
0.878981952228691
 20
0.693245223118823
 30
0.0
 11
1.00590043318602
 21
0.665108073299839
 31
0.0
  0
LINE
  8
9
  6
CONTINUOUS
 62
9
 10
1.00590043318602
 20
0.665108073299839
 30
0.0
 11
0.958214585648606
 21
0.680143363275051
 31
0.0
  0
LINE
  8
9
  6
CONTINUOUS
 62
9
 10
1.8789819524787
 20
0.693245223118818
 30
0.0
 11
2.00590043343602
 21
0.66510807329983
 31
0.0
  0
LINE
  8
9
  6
CONTINUOUS
 62
9
 10
2.00590043343602
 20
0.66510807329983
 30
0.0
 11
1.95821458589861
 21
0.680143363275044
 31
0.0
  0
LINE
  8
9
  6
CONTINUOUS
 62
9
 10
8.88167820124539
 20
0.704263875224337
 30
0.0
 11
8.75475972028805
 21
0.732401025043314
 31
0.0
  0
LINE
  8
9
  6
CONTINUOUS
 62
9
 10
8.75475972028805
 20
0.732401025043314
 30
0.0
 11
8.80244556782546
 21
0.717365735068105
 31
0.0
  0
LINE
  8
9
  6
CONTINUOUS
 62
9
 10
7.88167820099539
 20
0.704263875224321
 30
0.0
 11
7.75475972003807
 21
0.732401025043309
 31
0.0
  0
LINE
  8
9
  6
CONTINUOUS
 62
9
 10
7.75475972003807
 20
0.732401025043309
 30
0.0
 11
7.80244556757548
 21
0.717365735068096
 31
0.0
  0
LINE
  8
9
  6
CONTINUOUS
 62
9
 10
4.88075738738107
 20
0.652012922204642
 30
0.0
 11
4.9141374806656
 21
0.66253762518991
 31
0.0
  0
LINE
  8
9
  6
CONTINUOUS
 62
9
 10
4.9141374806656
 20
0.66253762518991
 30
0.0
 11
4.87996712040786
 21
0.654962238700195
 31
0.0
  0
LINE
  8
9
  6
CONTINUOUS
 62
9
 10
4.88075738738107
 20
0.868548355329642
 30
0.0
 11
4.9141374806656
 21
0.87907305831491
 31
0.0
  0
LINE
  8
9
  6
CONTINUOUS
 62
9
 10
4.9141374806656
 20
0.87907305831491
 30
0.0
 11
4.87996712040786
 21
0.871497671825195
 31
0.0
  0
LINE
  8
9
  6
CONTINUOUS
 62
9
 10
4.87378716863225
 20
1.09861178247135
 30
0.0
 11
4.88033007673705
 21
0.94875454923407
 31
0.0
  0
LINE
  8
9
  6
CONTINUOUS
 62
9
 10
4.88033007673705
 20
0.94875454923407
 30
0.0
 11
4.88251104610532
 21
0.998706960313163
 31
0.0
  0
LINE
  8
9
  6
CONTINUOUS
 62
9
 10
4.87880339817887
 20
1.46998107948943
 30
0.0
 11
4.88033007673703
 21
1.43501439172533
 31
0.0
  0
LINE
  8
9
  6
CONTINUOUS
 62
9
 10
4.88033007673703
 20
1.43501439172533
 30
0.0
 11
4.8818567552952
 21
1.46998107948943
 31
0.0
  0
LINE
  8
9
  6
CONTINUOUS
 62
9
 10
8.88167820124539
 20
1.30426387522434
 30
0.0
 11
8.75475972028805
 21
1.33240102504331
 31
0.0
  0
LINE
  8
9
  6
CONTINUOUS
 62
9
 10
8.75475972028805
 20
1.33240102504331
 30
0.0
 11
8.80244556782546
 21
1.31736573506811
 31
0.0
  0
LINE
  8
9
  6
CONTINUOUS
 62
9
 10
7.88167820099539
 20
1.30426387522432
 30
0.0
 11
7.75475972003807
 21
1.33240102504331
 31
0.0
  0
LINE
  8
9
  6
CONTINUOUS
 62
9
 10
7.75475972003807
 20
1.33240102504331
 30
0.0
 11
7.80244556757548
 21
1.3173657350681
 31
0.0
  0
LINE
  8
9
  6
CONTINUOUS
 62
9
 10
4.8818567552952
 20
1.25351227085371
 30
0.0
 11
4.88033007673705
 21
1.28847895861781
 31
0.0
  0
LINE
  8
9
  6
CONTINUOUS
 62
9
 10
4.88033007673705
 20
1.28847895861781
 30
0.0
 11
4.87880339817887
 21
1.25351227085371
 31
0.0
  0
LINE
  8
9
  6
CONTINUOUS
 62
9
 10
0.878981952228691
 20
1.29324522311882
 30
0.0
 11
1.00590043318602
 21
1.26510807329984
 31
0.0
  0
LINE
  8
9
  6
CONTINUOUS
 62
9
 10
1.00590043318602
 20
1.26510807329984
 30
0.0
 11
0.958214585648606
 21
1.28014336327505
 31
0.0
  0
LINE
  8
9
  6
CONTINUOUS
 62
9
 10
1.8789819524787
 20
1.29324522311882
 30
0.0
 11
2.00590043343602
 21
1.26510807329983
 31
0.0
  0
LINE
  8
9
  6
CONTINUOUS
 62
9
 10
2.00590043343602
 20
1.26510807329983
 30
0.0
 11
1.95821458589861
 21
1.28014336327504
 31
0.0
  0
LINE
  8
9
  6
CONTINUOUS
 62
9
 10
4.13499982699376
 20
1.00174172725638
 30
0.0
 11
4.08309535609448
 21
1.14247525524692
 31
0.0
  0
LINE
  8
9
  6
CONTINUOUS
 62
9
 10
4.08309535609448
 20
1.14247525524692
 30
0.0
 11
4.09624243061301
 21
1.0942346661999
 31
0.0
  0
ENDSEC
  0
EOF
