  0
SECTION
  2
HEADER
  9
$ACADVER
  1
AC1014
  9
$HANDSEED
  5
FFFF
  9
$MEASUREMENT
 70
     1
  0
ENDSEC
  0
SECTION
  2
TABLES
  0
TABLE
  2
VPORT
  5
8
330
0
100
AcDbSymbolTable
 70
     4
  0
VPORT
  5
2E
330
8
100
AcDbSymbolTableRecord
100
AcDbViewportTableRecord
  2
*ACTIVE
 70
     0
 10
0.0
 20
0.0
 11
1.0
 21
1.0
 12
210.0
 22
148.5
 13
0.0
 23
0.0
 14
10.0
 24
10.0
 15
10.0
 25
10.0
 16
0.0
 26
0.0
 36
1.0
 17
0.0
 27
0.0
 37
0.0
 40
341.0
 41
1.24
 42
50.0
 43
0.0
 44
0.0
 50
0.0
 51
0.0
 71
     0
 72
   100
 73
     1
 74
     3
 75
     0
 76
     0
 77
     0
 78
     0
  0
ENDTAB
  0
TABLE
  2
LTYPE
  5
5
330
0
100
AcDbSymbolTable
 70
     1
  0
LTYPE
  5
14
330
5
100
AcDbSymbolTableRecord
100
AcDbLinetypeTableRecord
  2
BYBLOCK
 70
     0
  3

 72
    65
 73
     0
 40
0.0
  0
LTYPE
  5
15
330
5
100
AcDbSymbolTableRecord
100
AcDbLinetypeTableRecord
  2
BYLAYER
 70
     0
  3

 72
    65
 73
     0
 40
0.0
  0
LTYPE
  5
16
330
5
100
AcDbSymbolTableRecord
100
AcDbLinetypeTableRecord
  2
CONTINUOUS
 70
     0
  3
Solid line
 72
    65
 73
     0
 40
0.0
  0
ENDTAB
  0
TABLE
  2
LAYER
  5
2
100
AcDbSymbolTable
 70
2
  0
LAYER
  5
50
100
AcDbSymbolTableRecord
100
AcDbLayerTableRecord
  2
0
 70
0
  6
CONTINUOUS
  0
LAYER
  5
51
100
AcDbSymbolTableRecord
100
AcDbLayerTableRecord
  2
Headplate
 70
0
  6
CONTINUOUS
  0
ENDTAB
  0
TABLE
  2
STYLE
  5
3
330
0
100
AcDbSymbolTable
 70
     1
  0
STYLE
  5
11
330
3
100
AcDbSymbolTableRecord
100
AcDbTextStyleTableRecord
  2
STANDARD
 70
     0
 40
0.0
 41
1.0
 50
0.0
 71
     0
 42
2.5
  3
txt
  4

  0
ENDTAB
  0
TABLE
  2
VIEW
  5
6
330
0
100
AcDbSymbolTable
 70
     0
  0
ENDTAB
  0
TABLE
  2
UCS
  5
7
330
0
100
AcDbSymbolTable
 70
     0
  0
ENDTAB
  0
TABLE
  2
APPID
  5
9
330
0
100
AcDbSymbolTable
 70
     2
  0
APPID
  5
12
330
9
100
AcDbSymbolTableRecord
100
AcDbRegAppTableRecord
  2
ACAD
 70
     0
  0
ENDTAB
  0
TABLE
  2
DIMSTYLE
  5
A
330
0
100
AcDbSymbolTable
 70
     1
  0
DIMSTYLE
105
27
330
A
100
AcDbSymbolTableRecord
100
AcDbDimStyleTableRecord
  2
ISO-25
 70
     0
  3

  4

  5

  6

  7

 40
1.0
 41
2.5
 42
0.625
 43
3.75
 44
1.25
 45
0.0
 46
0.0
 47
0.0
 48
0.0
140
2.5
141
2.5
142
0.0
143
0.03937007874016
144
1.0
145
0.0
146
1.0
147
0.625
 71
     0
 72
     0
 73
     0
 74
     0
 75
     0
 76
     0
 77
     1
 78
     8
170
     0
171
     3
172
     1
173
     0
174
     0
175
     0
176
     0
177
     0
178
     0
270
     2
271
     2
272
     2
273
     2
274
     3
340
11
275
     0
280
     0
281
     0
282
     0
283
     0
284
     8
285
     0
286
     0
287
     3
288
     0
  0
ENDTAB
  0
TABLE
  2
BLOCK_RECORD
  5
1
330
0
100
AcDbSymbolTable
 70
     1
  0
BLOCK_RECORD
  5
1F
330
1
100
AcDbSymbolTableRecord
100
AcDbBlockTableRecord
  2
*MODEL_SPACE
  0
BLOCK_RECORD
  5
1B
330
1
100
AcDbSymbolTableRecord
100
AcDbBlockTableRecord
  2
*PAPER_SPACE
  0
ENDTAB
  0
ENDSEC
  0
SECTION
  2
BLOCKS
  0
BLOCK
  5
20
330
1F
100
AcDbEntity
  8
0
100
AcDbBlockBegin
  2
*MODEL_SPACE
 70
     0
 10
0.0
 20
0.0
 30
0.0
  3
*MODEL_SPACE
  1

  0
ENDBLK
  5
21
330
1F
100
AcDbEntity
  8
0
100
AcDbBlockEnd
  0
BLOCK
  5
1C
330
1B
100
AcDbEntity
 67
     1
  8
0
100
AcDbBlockBegin
  2
*PAPER_SPACE
  1

  0
ENDBLK
  5
1D
330
1B
100
AcDbEntity
 67
     1
  8
0
100
AcDbBlockEnd
  0
ENDSEC
  0
SECTION
  2
ENTITIES
  0
SPLINE
  5
100
100
AcDbEntity
  8
Headplate
 62
7
100
AcDbSpline
 70
8
 71
3
 72
8
 73
4
 74
0
 40
0
 40
0
 40
0
 40
0
 40
1
 40
1
 40
1
 40
1
 10
1.282065
 20
24.724924
 30
0.0
 10
1.282065
 20
25.053713
 30
0.0
 10
1.548412
 20
25.320060
 30
0.0
 10
1.877201
 20
25.320060
 30
0.0
  0
SPLINE
  5
101
100
AcDbEntity
  8
Headplate
 62
7
100
AcDbSpline
 70
8
 71
3
 72
8
 73
4
 74
0
 40
0
 40
0
 40
0
 40
0
 40
1
 40
1
 40
1
 40
1
 10
1.877201
 20
25.320060
 30
0.0
 10
2.205637
 20
25.320060
 30
0.0
 10
2.471984
 20
25.053713
 30
0.0
 10
2.471984
 20
24.724924
 30
0.0
  0
SPLINE
  5
102
100
AcDbEntity
  8
Headplate
 62
7
100
AcDbSpline
 70
8
 71
3
 72
8
 73
4
 74
0
 40
0
 40
0
 40
0
 40
0
 40
1
 40
1
 40
1
 40
1
 10
2.471984
 20
24.724924
 30
0.0
 10
2.471984
 20
24.396488
 30
0.0
 10
2.205637
 20
24.129788
 30
0.0
 10
1.877201
 20
24.129788
 30
0.0
  0
SPLINE
  5
103
100
AcDbEntity
  8
Headplate
 62
7
100
AcDbSpline
 70
8
 71
3
 72
8
 73
4
 74
0
 40
0
 40
0
 40
0
 40
0
 40
1
 40
1
 40
1
 40
1
 10
1.877201
 20
24.129788
 30
0.0
 10
1.548412
 20
24.129788
 30
0.0
 10
1.282065
 20
24.396488
 30
0.0
 10
1.282065
 20
24.724924
 30
0.0
  0
LINE
  5
104
100
AcDbEntity
  8
Headplate
 62
7
100
AcDbLine
 10
1.282065
 20
24.724924
 30
0.0
 11
1.282065
 21
24.724924
 31
0.0
  0
SPLINE
  5
105
100
AcDbEntity
  8
Headplate
 62
7
100
AcDbSpline
 70
8
 71
3
 72
8
 73
4
 74
0
 40
0
 40
0
 40
0
 40
0
 40
1
 40
1
 40
1
 40
1
 10
19.282021
 20
24.724924
 30
0.0
 10
19.282021
 20
25.053713
 30
0.0
 10
19.548369
 20
25.320060
 30
0.0
 10
19.877158
 20
25.320060
 30
0.0
  0
SPLINE
  5
106
100
AcDbEntity
  8
Headplate
 62
7
100
AcDbSpline
 70
8
 71
3
 72
8
 73
4
 74
0
 40
0
 40
0
 40
0
 40
0
 40
1
 40
1
 40
1
 40
1
 10
19.877158
 20
25.320060
 30
0.0
 10
20.205594
 20
25.320060
 30
0.0
 10
20.471941
 20
25.053713
 30
0.0
 10
20.471941
 20
24.724924
 30
0.0
  0
SPLINE
  5
107
100
AcDbEntity
  8
Headplate
 62
7
100
AcDbSpline
 70
8
 71
3
 72
8
 73
4
 74
0
 40
0
 40
0
 40
0
 40
0
 40
1
 40
1
 40
1
 40
1
 10
20.471941
 20
24.724924
 30
0.0
 10
20.471941
 20
24.396488
 30
0.0
 10
20.205594
 20
24.129788
 30
0.0
 10
19.877158
 20
24.129788
 30
0.0
  0
SPLINE
  5
108
100
AcDbEntity
  8
Headplate
 62
7
100
AcDbSpline
 70
8
 71
3
 72
8
 73
4
 74
0
 40
0
 40
0
 40
0
 40
0
 40
1
 40
1
 40
1
 40
1
 10
19.877158
 20
24.129788
 30
0.0
 10
19.548369
 20
24.129788
 30
0.0
 10
19.282021
 20
24.396488
 30
0.0
 10
19.282021
 20
24.724924
 30
0.0
  0
LINE
  5
109
100
AcDbEntity
  8
Headplate
 62
7
100
AcDbLine
 10
19.282021
 20
24.724924
 30
0.0
 11
19.282021
 21
24.724924
 31
0.0
  0
SPLINE
  5
10a
100
AcDbEntity
  8
Headplate
 62
7
100
AcDbSpline
 70
8
 71
3
 72
8
 73
4
 74
0
 40
0
 40
0
 40
0
 40
0
 40
1
 40
1
 40
1
 40
1
 10
13.877007
 20
16.625005
 30
0.0
 10
13.935216
 20
17.288933
 30
0.0
 10
15.772835
 20
19.067286
 30
0.0
 10
17.026255
 20
20.560947
 30
0.0
  0
SPLINE
  5
10b
100
AcDbEntity
  8
Headplate
 62
7
100
AcDbSpline
 70
8
 71
3
 72
8
 73
4
 74
0
 40
0
 40
0
 40
0
 40
0
 40
1
 40
1
 40
1
 40
1
 10
17.026255
 20
20.560947
 30
0.0
 10
17.922310
 20
21.628805
 30
0.0
 10
18.519563
 20
22.551319
 30
0.0
 10
18.915732
 20
23.511227
 30
0.0
  0
LINE
  5
10c
100
AcDbEntity
  8
Headplate
 62
7
100
AcDbLine
 10
18.915803
 20
23.511051
 30
0.0
 11
20.408758
 21
22.846417
 31
0.0
  0
LINE
  5
10d
100
AcDbEntity
  8
Headplate
 62
7
100
AcDbLine
 10
21.628981
 20
25.586901
 30
0.0
 11
20.409076
 21
22.846171
 31
0.0
  0
LINE
  5
10e
100
AcDbEntity
  8
Headplate
 62
7
100
AcDbLine
 10
19.583646
 20
26.497597
 30
0.0
 11
21.629052
 21
25.586725
 31
0.0
  0
SPLINE
  5
10f
100
AcDbEntity
  8
Headplate
 62
7
100
AcDbSpline
 70
8
 71
3
 72
8
 73
4
 74
0
 40
0
 40
0
 40
0
 40
0
 40
1
 40
1
 40
1
 40
1
 10
19.583646
 20
26.497597
 30
0.0
 10
19.683483
 20
27.676580
 30
0.0
 10
19.657377
 20
29.044652
 30
0.0
 10
19.291546
 20
30.521380
 30
0.0
  0
SPLINE
  5
110
100
AcDbEntity
  8
Headplate
 62
7
100
AcDbSpline
 70
8
 71
3
 72
8
 73
4
 74
0
 40
0
 40
0
 40
0
 40
0
 40
1
 40
1
 40
1
 40
1
 10
19.291546
 20
30.521380
 30
0.0
 10
18.521433
 20
33.629352
 30
0.0
 10
16.246016
 20
37.219572
 30
0.0
 10
13.976949
 20
36.775072
 30
0.0
  0
SPLINE
  5
111
100
AcDbEntity
  8
Headplate
 62
7
100
AcDbSpline
 70
8
 71
3
 72
8
 73
4
 74
0
 40
0
 40
0
 40
0
 40
0
 40
1
 40
1
 40
1
 40
1
 10
13.976949
 20
36.775072
 30
0.0
 10
13.339833
 20
36.650188
 30
0.0
 10
12.703069
 20
36.207099
 30
0.0
 10
11.876863
 20
35.875135
 30
0.0
  0
SPLINE
  5
112
100
AcDbEntity
  8
Headplate
 62
7
100
AcDbSpline
 70
8
 71
3
 72
8
 73
4
 74
0
 40
0
 40
0
 40
0
 40
0
 40
1
 40
1
 40
1
 40
1
 10
11.876863
 20
35.875135
 30
0.0
 10
11.509974
 20
35.727322
 30
0.0
 10
11.105338
 20
35.601733
 30
0.0
 10
10.930008
 20
35.578802
 30
0.0
  0
SPLINE
  5
113
100
AcDbEntity
  8
Headplate
 62
7
100
AcDbSpline
 70
8
 71
3
 72
8
 73
4
 74
0
 40
0
 40
0
 40
0
 40
0
 40
1
 40
1
 40
1
 40
1
 10
10.930008
 20
35.578802
 30
0.0
 10
10.890849
 20
35.573863
 30
0.0
 10
10.863333
 20
35.573863
 30
0.0
 10
10.824174
 20
35.578802
 30
0.0
  0
SPLINE
  5
114
100
AcDbEntity
  8
Headplate
 62
7
100
AcDbSpline
 70
8
 71
3
 72
8
 73
4
 74
0
 40
0
 40
0
 40
0
 40
0
 40
1
 40
1
 40
1
 40
1
 10
10.824174
 20
35.578802
 30
0.0
 10
10.648844
 20
35.601733
 30
0.0
 10
10.244208
 20
35.727322
 30
0.0
 10
9.876966
 20
35.875135
 30
0.0
  0
SPLINE
  5
115
100
AcDbEntity
  8
Headplate
 62
7
100
AcDbSpline
 70
8
 71
3
 72
8
 73
4
 74
0
 40
0
 40
0
 40
0
 40
0
 40
1
 40
1
 40
1
 40
1
 10
9.876966
 20
35.875135
 30
0.0
 10
9.051113
 20
36.207099
 30
0.0
 10
8.414350
 20
36.650188
 30
0.0
 10
7.777233
 20
36.775072
 30
0.0
  0
SPLINE
  5
116
100
AcDbEntity
  8
Headplate
 62
7
100
AcDbSpline
 70
8
 71
3
 72
8
 73
4
 74
0
 40
0
 40
0
 40
0
 40
0
 40
1
 40
1
 40
1
 40
1
 10
7.777233
 20
36.775072
 30
0.0
 10
5.508166
 20
37.219572
 30
0.0
 10
3.232750
 20
33.629352
 30
0.0
 10
2.462636
 20
30.521380
 30
0.0
  0
SPLINE
  5
117
100
AcDbEntity
  8
Headplate
 62
7
100
AcDbSpline
 70
8
 71
3
 72
8
 73
4
 74
0
 40
0
 40
0
 40
0
 40
0
 40
1
 40
1
 40
1
 40
1
 10
2.462636
 20
30.521380
 30
0.0
 10
2.096805
 20
29.044652
 30
0.0
 10
2.070700
 20
27.676580
 30
0.0
 10
2.170536
 20
26.497597
 30
0.0
  0
LINE
  5
118
100
AcDbEntity
  8
Headplate
 62
7
100
AcDbLine
 10
2.170571
 20
26.497597
 30
0.0
 11
0.125166
 21
25.586725
 31
0.0
  0
LINE
  5
119
100
AcDbEntity
  8
Headplate
 62
7
100
AcDbLine
 10
0.125060
 20
25.586901
 30
0.0
 11
1.344965
 21
22.846171
 31
0.0
  0
LINE
  5
11a
100
AcDbEntity
  8
Headplate
 62
7
100
AcDbLine
 10
2.838238
 20
23.511051
 30
0.0
 11
1.345283
 21
22.846417
 31
0.0
  0
SPLINE
  5
11b
100
AcDbEntity
  8
Headplate
 62
7
100
AcDbSpline
 70
8
 71
3
 72
8
 73
4
 74
0
 40
0
 40
0
 40
0
 40
0
 40
1
 40
1
 40
1
 40
1
 10
2.838238
 20
23.511051
 30
0.0
 10
3.234408
 20
22.551495
 30
0.0
 10
3.831660
 20
21.628981
 30
0.0
 10
4.728069
 20
20.560770
 30
0.0
  0
SPLINE
  5
11c
100
AcDbEntity
  8
Headplate
 62
7
100
AcDbSpline
 70
8
 71
3
 72
8
 73
4
 74
0
 40
0
 40
0
 40
0
 40
0
 40
1
 40
1
 40
1
 40
1
 10
4.728069
 20
20.560770
 30
0.0
 10
5.981488
 20
19.067109
 30
0.0
 10
7.819108
 20
17.289109
 30
0.0
 10
7.876963
 20
16.624829
 30
0.0
  0
LINE
  5
11d
100
AcDbEntity
  8
Headplate
 62
7
100
AcDbLine
 10
7.877034
 20
16.625005
 30
0.0
 11
7.877034
 21
3.124905
 31
0.0
  0
LINE
  5
11e
100
AcDbEntity
  8
Headplate
 62
7
100
AcDbLine
 10
7.877034
 20
3.125047
 30
0.0
 11
7.377148
 21
3.125047
 31
0.0
  0
LINE
  5
11f
100
AcDbEntity
  8
Headplate
 62
7
100
AcDbLine
 10
7.376971
 20
3.125047
 30
0.0
 11
7.376971
 21
0.125024
 31
0.0
  0
LINE
  5
120
100
AcDbEntity
  8
Headplate
 62
7
100
AcDbLine
 10
7.376971
 20
0.125060
 30
0.0
 11
14.377140
 21
0.125060
 31
0.0
  0
LINE
  5
121
100
AcDbEntity
  8
Headplate
 62
7
100
AcDbLine
 10
14.377070
 20
0.125060
 30
0.0
 11
14.377070
 21
3.125082
 31
0.0
  0
LINE
  5
122
100
AcDbEntity
  8
Headplate
 62
7
100
AcDbLine
 10
14.377070
 20
3.125047
 30
0.0
 11
13.877184
 21
3.125047
 31
0.0
  0
LINE
  5
123
100
AcDbEntity
  8
Headplate
 62
7
100
AcDbLine
 10
13.877007
 20
3.125047
 30
0.0
 11
13.877007
 21
16.625146
 31
0.0
  0
SPLINE
  5
124
100
AcDbEntity
  8
Headplate
 62
7
100
AcDbSpline
 70
8
 71
3
 72
8
 73
4
 74
0
 40
0
 40
0
 40
0
 40
0
 40
1
 40
1
 40
1
 40
1
 10
9.677082
 20
12.125007
 30
0.0
 10
9.677082
 20
12.787524
 30
0.0
 10
10.214363
 20
13.324804
 30
0.0
 10
10.876879
 20
13.324804
 30
0.0
  0
SPLINE
  5
125
100
AcDbEntity
  8
Headplate
 62
7
100
AcDbSpline
 70
8
 71
3
 72
8
 73
4
 74
0
 40
0
 40
0
 40
0
 40
0
 40
1
 40
1
 40
1
 40
1
 10
10.876879
 20
13.324804
 30
0.0
 10
11.539749
 20
13.324804
 30
0.0
 10
12.077029
 20
12.787524
 30
0.0
 10
12.077029
 20
12.125007
 30
0.0
  0
SPLINE
  5
126
100
AcDbEntity
  8
Headplate
 62
7
100
AcDbSpline
 70
8
 71
3
 72
8
 73
4
 74
0
 40
0
 40
0
 40
0
 40
0
 40
1
 40
1
 40
1
 40
1
 10
12.077029
 20
12.125007
 30
0.0
 10
12.077029
 20
11.462138
 30
0.0
 10
11.539749
 20
10.924857
 30
0.0
 10
10.876879
 20
10.924857
 30
0.0
  0
SPLINE
  5
127
100
AcDbEntity
  8
Headplate
 62
7
100
AcDbSpline
 70
8
 71
3
 72
8
 73
4
 74
0
 40
0
 40
0
 40
0
 40
0
 40
1
 40
1
 40
1
 40
1
 10
10.876879
 20
10.924857
 30
0.0
 10
10.214363
 20
10.924857
 30
0.0
 10
9.677082
 20
11.462138
 30
0.0
 10
9.677082
 20
12.125007
 30
0.0
  0
LINE
  5
128
100
AcDbEntity
  8
Headplate
 62
7
100
AcDbLine
 10
9.677082
 20
12.125007
 30
0.0
 11
9.677082
 21
12.125007
 31
0.0
  0
SPLINE
  5
129
100
AcDbEntity
  8
Headplate
 62
7
100
AcDbSpline
 70
8
 71
3
 72
8
 73
4
 74
0
 40
0
 40
0
 40
0
 40
0
 40
1
 40
1
 40
1
 40
1
 10
5.077037
 20
21.524947
 30
0.0
 10
5.077037
 20
21.966625
 30
0.0
 10
5.435106
 20
22.325047
 30
0.0
 10
5.877137
 20
22.325047
 30
0.0
  0
SPLINE
  5
12a
100
AcDbEntity
  8
Headplate
 62
7
100
AcDbSpline
 70
8
 71
3
 72
8
 73
4
 74
0
 40
0
 40
0
 40
0
 40
0
 40
1
 40
1
 40
1
 40
1
 10
5.877137
 20
22.325047
 30
0.0
 10
6.318814
 20
22.325047
 30
0.0
 10
6.677236
 20
21.966625
 30
0.0
 10
6.677236
 20
21.524947
 30
0.0
  0
SPLINE
  5
12b
100
AcDbEntity
  8
Headplate
 62
7
100
AcDbSpline
 70
8
 71
3
 72
8
 73
4
 74
0
 40
0
 40
0
 40
0
 40
0
 40
1
 40
1
 40
1
 40
1
 10
6.677236
 20
21.524947
 30
0.0
 10
6.677236
 20
21.083269
 30
0.0
 10
6.318814
 20
20.724847
 30
0.0
 10
5.877137
 20
20.724847
 30
0.0
  0
SPLINE
  5
12c
100
AcDbEntity
  8
Headplate
 62
7
100
AcDbSpline
 70
8
 71
3
 72
8
 73
4
 74
0
 40
0
 40
0
 40
0
 40
0
 40
1
 40
1
 40
1
 40
1
 10
5.877137
 20
20.724847
 30
0.0
 10
5.435106
 20
20.724847
 30
0.0
 10
5.077037
 20
21.083269
 30
0.0
 10
5.077037
 20
21.524947
 30
0.0
  0
LINE
  5
12d
100
AcDbEntity
  8
Headplate
 62
7
100
AcDbLine
 10
5.077037
 20
21.524947
 30
0.0
 11
5.077037
 21
21.524947
 31
0.0
  0
SPLINE
  5
12e
100
AcDbEntity
  8
Headplate
 62
7
100
AcDbSpline
 70
8
 71
3
 72
8
 73
4
 74
0
 40
0
 40
0
 40
0
 40
0
 40
1
 40
1
 40
1
 40
1
 10
10.877021
 20
32.975091
 30
0.0
 10
10.459332
 20
32.975091
 30
0.0
 10
10.041643
 20
33.205454
 30
0.0
 10
9.627129
 20
33.474977
 30
0.0
  0
SPLINE
  5
12f
100
AcDbEntity
  8
Headplate
 62
7
100
AcDbSpline
 70
8
 71
3
 72
8
 73
4
 74
0
 40
0
 40
0
 40
0
 40
0
 40
1
 40
1
 40
1
 40
1
 10
9.627129
 20
33.474977
 30
0.0
 10
8.661929
 20
34.102568
 30
0.0
 10
7.712251
 20
34.942885
 30
0.0
 10
6.877226
 20
34.974988
 30
0.0
  0
SPLINE
  5
130
100
AcDbEntity
  8
Headplate
 62
7
100
AcDbSpline
 70
8
 71
3
 72
8
 73
4
 74
0
 40
0
 40
0
 40
0
 40
0
 40
1
 40
1
 40
1
 40
1
 10
6.877226
 20
34.974988
 30
0.0
 10
5.350051
 20
35.033902
 30
0.0
 10
4.205640
 20
32.391949
 30
0.0
 10
3.677179
 20
30.225188
 30
0.0
  0
SPLINE
  5
131
100
AcDbEntity
  8
Headplate
 62
7
100
AcDbSpline
 70
8
 71
3
 72
8
 73
4
 74
0
 40
0
 40
0
 40
0
 40
0
 40
1
 40
1
 40
1
 40
1
 10
3.677179
 20
30.225188
 30
0.0
 10
3.169179
 20
28.142741
 30
0.0
 10
3.229857
 20
26.499149
 30
0.0
 10
3.877204
 20
24.725030
 30
0.0
  0
SPLINE
  5
132
100
AcDbEntity
  8
Headplate
 62
7
100
AcDbSpline
 70
8
 71
3
 72
8
 73
4
 74
0
 40
0
 40
0
 40
0
 40
0
 40
1
 40
1
 40
1
 40
1
 10
3.877204
 20
24.725030
 30
0.0
 10
4.048654
 20
24.255130
 30
0.0
 10
4.261026
 20
23.776057
 30
0.0
 10
4.627210
 20
23.475138
 30
0.0
  0
SPLINE
  5
133
100
AcDbEntity
  8
Headplate
 62
7
100
AcDbSpline
 70
8
 71
3
 72
8
 73
4
 74
0
 40
0
 40
0
 40
0
 40
0
 40
1
 40
1
 40
1
 40
1
 10
4.627210
 20
23.475138
 30
0.0
 10
5.245276
 20
22.966432
 30
0.0
 10
6.300435
 20
22.965021
 30
0.0
 10
6.877226
 20
22.475013
 30
0.0
  0
SPLINE
  5
134
100
AcDbEntity
  8
Headplate
 62
7
100
AcDbSpline
 70
8
 71
3
 72
8
 73
4
 74
0
 40
0
 40
0
 40
0
 40
0
 40
1
 40
1
 40
1
 40
1
 10
6.877226
 20
22.475013
 30
0.0
 10
7.464248
 20
21.975480
 30
0.0
 10
7.554560
 20
20.968652
 30
0.0
 10
7.876998
 20
20.174902
 30
0.0
  0
SPLINE
  5
135
100
AcDbEntity
  8
Headplate
 62
7
100
AcDbSpline
 70
8
 71
3
 72
8
 73
4
 74
0
 40
0
 40
0
 40
0
 40
0
 40
1
 40
1
 40
1
 40
1
 10
7.876998
 20
20.174902
 30
0.0
 10
8.206140
 20
19.364219
 30
0.0
 10
8.777640
 20
18.775785
 30
0.0
 10
9.477198
 20
18.175005
 30
0.0
  0
SPLINE
  5
136
100
AcDbEntity
  8
Headplate
 62
7
100
AcDbSpline
 70
8
 71
3
 72
8
 73
4
 74
0
 40
0
 40
0
 40
0
 40
0
 40
1
 40
1
 40
1
 40
1
 10
9.477198
 20
18.175005
 30
0.0
 10
9.910762
 20
17.802471
 30
0.0
 10
10.393715
 20
17.424999
 30
0.0
 10
10.877021
 20
17.424999
 30
0.0
  0
SPLINE
  5
137
100
AcDbEntity
  8
Headplate
 62
7
100
AcDbSpline
 70
8
 71
3
 72
8
 73
4
 74
0
 40
0
 40
0
 40
0
 40
0
 40
1
 40
1
 40
1
 40
1
 10
10.877021
 20
17.424999
 30
0.0
 10
11.360326
 20
17.424999
 30
0.0
 10
11.843279
 20
17.802471
 30
0.0
 10
12.277196
 20
18.175005
 30
0.0
  0
SPLINE
  5
138
100
AcDbEntity
  8
Headplate
 62
7
100
AcDbSpline
 70
8
 71
3
 72
8
 73
4
 74
0
 40
0
 40
0
 40
0
 40
0
 40
1
 40
1
 40
1
 40
1
 10
12.277196
 20
18.175005
 30
0.0
 10
12.976754
 20
18.775785
 30
0.0
 10
13.547901
 20
19.364219
 30
0.0
 10
13.877043
 20
20.174902
 30
0.0
  0
SPLINE
  5
139
100
AcDbEntity
  8
Headplate
 62
7
100
AcDbSpline
 70
8
 71
3
 72
8
 73
4
 74
0
 40
0
 40
0
 40
0
 40
0
 40
1
 40
1
 40
1
 40
1
 10
13.877043
 20
20.174902
 30
0.0
 10
14.199482
 20
20.968652
 30
0.0
 10
14.289793
 20
21.975480
 30
0.0
 10
14.877168
 20
22.475013
 30
0.0
  0
SPLINE
  5
13a
100
AcDbEntity
  8
Headplate
 62
7
100
AcDbSpline
 70
8
 71
3
 72
8
 73
4
 74
0
 40
0
 40
0
 40
0
 40
0
 40
1
 40
1
 40
1
 40
1
 10
14.877168
 20
22.475013
 30
0.0
 10
15.453607
 20
22.965021
 30
0.0
 10
16.508765
 20
22.966432
 30
0.0
 10
17.127184
 20
23.475138
 30
0.0
  0
SPLINE
  5
13b
100
AcDbEntity
  8
Headplate
 62
7
100
AcDbSpline
 70
8
 71
3
 72
8
 73
4
 74
0
 40
0
 40
0
 40
0
 40
0
 40
1
 40
1
 40
1
 40
1
 10
17.127184
 20
23.475138
 30
0.0
 10
17.493015
 20
23.776057
 30
0.0
 10
17.705387
 20
24.255130
 30
0.0
 10
17.877190
 20
24.725030
 30
0.0
  0
SPLINE
  5
13c
100
AcDbEntity
  8
Headplate
 62
7
100
AcDbSpline
 70
8
 71
3
 72
8
 73
4
 74
0
 40
0
 40
0
 40
0
 40
0
 40
1
 40
1
 40
1
 40
1
 10
17.877190
 20
24.725030
 30
0.0
 10
18.524537
 20
26.499149
 30
0.0
 10
18.584862
 20
28.142741
 30
0.0
 10
18.077215
 20
30.225188
 30
0.0
  0
SPLINE
  5
13d
100
AcDbEntity
  8
Headplate
 62
7
100
AcDbSpline
 70
8
 71
3
 72
8
 73
4
 74
0
 40
0
 40
0
 40
0
 40
0
 40
1
 40
1
 40
1
 40
1
 10
18.077215
 20
30.225188
 30
0.0
 10
17.548401
 20
32.391949
 30
0.0
 10
16.403990
 20
35.033902
 30
0.0
 10
14.877168
 20
34.974988
 30
0.0
  0
SPLINE
  5
13e
100
AcDbEntity
  8
Headplate
 62
7
100
AcDbSpline
 70
8
 71
3
 72
8
 73
4
 74
0
 40
0
 40
0
 40
0
 40
0
 40
1
 40
1
 40
1
 40
1
 10
14.877168
 20
34.974988
 30
0.0
 10
14.041790
 20
34.942885
 30
0.0
 10
13.092112
 20
34.102568
 30
0.0
 10
12.126912
 20
33.474977
 30
0.0
  0
SPLINE
  5
13f
100
AcDbEntity
  8
Headplate
 62
7
100
AcDbSpline
 70
8
 71
3
 72
8
 73
4
 74
0
 40
0
 40
0
 40
0
 40
0
 40
1
 40
1
 40
1
 40
1
 10
12.126912
 20
33.474977
 30
0.0
 10
11.712398
 20
33.205454
 30
0.0
 10
11.294709
 20
32.975091
 30
0.0
 10
10.877021
 20
32.975091
 30
0.0
  0
LINE
  5
140
100
AcDbEntity
  8
Headplate
 62
7
100
AcDbLine
 10
10.877021
 20
32.975091
 30
0.0
 11
10.877021
 21
32.975091
 31
0.0
  0
SPLINE
  5
141
100
AcDbEntity
  8
Headplate
 62
7
100
AcDbSpline
 70
8
 71
3
 72
8
 73
4
 74
0
 40
0
 40
0
 40
0
 40
0
 40
1
 40
1
 40
1
 40
1
 10
10.077062
 20
34.274900
 30
0.0
 10
10.077062
 20
34.716578
 30
0.0
 10
10.435131
 20
35.075000
 30
0.0
 10
10.877162
 20
35.075000
 30
0.0
  0
SPLINE
  5
142
100
AcDbEntity
  8
Headplate
 62
7
100
AcDbSpline
 70
8
 71
3
 72
8
 73
4
 74
0
 40
0
 40
0
 40
0
 40
0
 40
1
 40
1
 40
1
 40
1
 10
10.877162
 20
35.075000
 30
0.0
 10
11.318839
 20
35.075000
 30
0.0
 10
11.676909
 20
34.716578
 30
0.0
 10
11.676909
 20
34.274900
 30
0.0
  0
SPLINE
  5
143
100
AcDbEntity
  8
Headplate
 62
7
100
AcDbSpline
 70
8
 71
3
 72
8
 73
4
 74
0
 40
0
 40
0
 40
0
 40
0
 40
1
 40
1
 40
1
 40
1
 10
11.676909
 20
34.274900
 30
0.0
 10
11.676909
 20
33.833222
 30
0.0
 10
11.318839
 20
33.474800
 30
0.0
 10
10.877162
 20
33.474800
 30
0.0
  0
SPLINE
  5
144
100
AcDbEntity
  8
Headplate
 62
7
100
AcDbSpline
 70
8
 71
3
 72
8
 73
4
 74
0
 40
0
 40
0
 40
0
 40
0
 40
1
 40
1
 40
1
 40
1
 10
10.877162
 20
33.474800
 30
0.0
 10
10.435131
 20
33.474800
 30
0.0
 10
10.077062
 20
33.833222
 30
0.0
 10
10.077062
 20
34.274900
 30
0.0
  0
LINE
  5
145
100
AcDbEntity
  8
Headplate
 62
7
100
AcDbLine
 10
10.077062
 20
34.274900
 30
0.0
 11
10.077062
 21
34.274900
 31
0.0
  0
SPLINE
  5
146
100
AcDbEntity
  8
Headplate
 62
7
100
AcDbSpline
 70
8
 71
3
 72
8
 73
4
 74
0
 40
0
 40
0
 40
0
 40
0
 40
1
 40
1
 40
1
 40
1
 10
15.077122
 20
21.524947
 30
0.0
 10
15.077122
 20
21.966625
 30
0.0
 10
15.435192
 20
22.325047
 30
0.0
 10
15.877222
 20
22.325047
 30
0.0
  0
SPLINE
  5
147
100
AcDbEntity
  8
Headplate
 62
7
100
AcDbSpline
 70
8
 71
3
 72
8
 73
4
 74
0
 40
0
 40
0
 40
0
 40
0
 40
1
 40
1
 40
1
 40
1
 10
15.877222
 20
22.325047
 30
0.0
 10
16.318900
 20
22.325047
 30
0.0
 10
16.676969
 20
21.966625
 30
0.0
 10
16.676969
 20
21.524947
 30
0.0
  0
SPLINE
  5
148
100
AcDbEntity
  8
Headplate
 62
7
100
AcDbSpline
 70
8
 71
3
 72
8
 73
4
 74
0
 40
0
 40
0
 40
0
 40
0
 40
1
 40
1
 40
1
 40
1
 10
16.676969
 20
21.524947
 30
0.0
 10
16.676969
 20
21.083269
 30
0.0
 10
16.318900
 20
20.724847
 30
0.0
 10
15.877222
 20
20.724847
 30
0.0
  0
SPLINE
  5
149
100
AcDbEntity
  8
Headplate
 62
7
100
AcDbSpline
 70
8
 71
3
 72
8
 73
4
 74
0
 40
0
 40
0
 40
0
 40
0
 40
1
 40
1
 40
1
 40
1
 10
15.877222
 20
20.724847
 30
0.0
 10
15.435192
 20
20.724847
 30
0.0
 10
15.077122
 20
21.083269
 30
0.0
 10
15.077122
 20
21.524947
 30
0.0
  0
LINE
  5
14a
100
AcDbEntity
  8
Headplate
 62
7
100
AcDbLine
 10
15.077122
 20
21.524947
 30
0.0
 11
15.077122
 21
21.524947
 31
0.0
  0
SPLINE
  5
14b
100
AcDbEntity
  8
Headplate
 62
7
100
AcDbSpline
 70
8
 71
3
 72
8
 73
4
 74
0
 40
0
 40
0
 40
0
 40
0
 40
1
 40
1
 40
1
 40
1
 10
9.677082
 20
6.624920
 30
0.0
 10
9.677082
 20
7.287789
 30
0.0
 10
10.214363
 20
7.824717
 30
0.0
 10
10.876879
 20
7.824717
 30
0.0
  0
SPLINE
  5
14c
100
AcDbEntity
  8
Headplate
 62
7
100
AcDbSpline
 70
8
 71
3
 72
8
 73
4
 74
0
 40
0
 40
0
 40
0
 40
0
 40
1
 40
1
 40
1
 40
1
 10
10.876879
 20
7.824717
 30
0.0
 10
11.539749
 20
7.824717
 30
0.0
 10
12.077029
 20
7.287789
 30
0.0
 10
12.077029
 20
6.624920
 30
0.0
  0
SPLINE
  5
14d
100
AcDbEntity
  8
Headplate
 62
7
100
AcDbSpline
 70
8
 71
3
 72
8
 73
4
 74
0
 40
0
 40
0
 40
0
 40
0
 40
1
 40
1
 40
1
 40
1
 10
12.077029
 20
6.624920
 30
0.0
 10
12.077029
 20
5.962050
 30
0.0
 10
11.539749
 20
5.425122
 30
0.0
 10
10.876879
 20
5.425122
 30
0.0
  0
SPLINE
  5
14e
100
AcDbEntity
  8
Headplate
 62
7
100
AcDbSpline
 70
8
 71
3
 72
8
 73
4
 74
0
 40
0
 40
0
 40
0
 40
0
 40
1
 40
1
 40
1
 40
1
 10
10.876879
 20
5.425122
 30
0.0
 10
10.214363
 20
5.425122
 30
0.0
 10
9.677082
 20
5.962050
 30
0.0
 10
9.677082
 20
6.624920
 30
0.0
  0
LINE
  5
14f
100
AcDbEntity
  8
Headplate
 62
7
100
AcDbLine
 10
9.677082
 20
6.624920
 30
0.0
 11
9.677082
 21
6.624920
 31
0.0
  0
ENDSEC
  0
SECTION
  2
OBJECTS
  0
DICTIONARY
  5
C
330
0
100
AcDbDictionary
  3
ACAD_GROUP
350
D
  3
ACAD_MLINESTYLE
350
17
  0
DICTIONARY
  5
D
330
C
100
AcDbDictionary
  0
DICTIONARY
  5
1A
330
C
100
AcDbDictionary
  0
DICTIONARY
  5
17
330
C
100
AcDbDictionary
  3
STANDARD
350
18
  0
DICTIONARY
  5
19
330
C
100
AcDbDictionary
  0
ENDSEC
  0
EOF
